<svg version="1.2" xmlns="http://www.w3.org/2000/svg" viewBox="0 0 2500 2000" width="2500" height="2000">
	<title>AdobeStock_277095121</title>
	<style>
		.s0 { fill: #1d1d1f } 
	</style>
	<g id="_Artboards_">
	</g>
	<g id="Layer 1">
		<path id="&lt;Path&gt;" class="s0" d="m1962.7 674.9c0 0 182.8 210 262.1 260 35.3 26.4 38.6 90.6 8.2 94.5 0 29.4-1.5 31.9-41.1 36.3-25 7.3-14.7 13.2-20.6 23.5-5.9 10.2-61.7 36.7-98.4-45.6-36.7-82.2-95.5-61.2-105.3-60.2 68.5-35.5 78.1-5.9 105.3 12.5 27.2 18.3 49.2 8.8 49.2 8.8-2.2 25.7 6.6 59.5 20.6 54.4 13.9-5.2 14.9-26.7 12.9-30.7 20.1 6.9 49.5 1.5 47.1-10.7-2.5-12.3-2.2-19.9 19.8-35.3-14.7-32.3-258.8-234.1-259.8-307.5z"/>
		<path id="&lt;Path&gt;" class="s0" d="m1688 729.3c0 0-70 99.4-16.2 175.7-67.5 44.1-217.4 147-245.3 291.4 87.7-108.2 142.5-207.1 294.9-230.5 49.9 28.6 157.6 36.6 250.1-14.8-73.4 19.1-305.5-8.8-283.5-221.8z"/>
		<path id="&lt;Path&gt;" class="s0" d="m1089.4 1125c0 0 276.2-155.8 311.4 114.5 76.4-11.7 387.8 5.9 528.9 132.3-158.7-41.2-379-141.1-578.8-67.6-64.7-73.5-8.8-252.7-261.5-179.2z"/>
		<path id="&lt;Path&gt;" class="s0" d="m1970.6 761.8c0 0 0-0.4 0-1.1-0.6-5.2-3.8-26.1-22.7-28.5-21.7-2.7-67.5-12.3-67.5-12.3 0 0 25.5 10.1 34 21 8.5 10.8 24.4 20.1 34 16.8 9.6-3.3 30.5 20 30.5 20z"/>
		<path id="&lt;Path&gt;" class="s0" d="m1005.4 1394.5c0 0-12.6 174.3 320.4 84.9 333-89.4 411.2-91.6 516.3 11.2-61.5 21.2-183.3 48.4-224.1 101.7 56.5-98.9 131.2-113.9 149.8-119.6-44.2-31.3-246.9-33.2-434.2 42.5-163.1 65.9-369.1 26.8-328.2-120.7z"/>
		<path id="&lt;Path&gt;" class="s0" d="m1313.4 800.8c0 0-223.3-50.4-414.3 50.7-190.9 101.1-449.5 95.8-646.3 0 167.4 101.1 326.9 207.7 661 73.8 205.7-87.3 243.9-120.6 399.6-124.5z"/>
		<path id="&lt;Path&gt;" class="s0" d=""/>
		<path id="&lt;Path&gt;" class="s0" d="m1888.2 611c-2.3-18.4-2.7-72.7 0.9-94.4-18.3 11.3-31.6 52.1-35.9 65.4-5.8-23-5.6-52 12.6-83.4-55.9 16.7-65.7 61.7-66.6 80.3-36.3-22.5-172.5-70.6-294.8-56.8-112.4 12.7-304.6 63.7-437.8-1.9 32.3 40.1 160.1 107.2 333.4 62.1 72.5-13.7 172.9 3.5 199.4 17.2-57.8-4.9-145-7.8-222.3 22.5-77.4 30.4-403.5 18.6-466.2-29.4 42.1 38.2 205.7 128.3 446.6 77.4-119.5 24.5-191 38.2-369.2 32.3-178.3-5.8-307.6 80.3-358.5 135.2 125.4-66.6 195.9-107.7 376.1-82.3 180.2 25.5 340.2 21.7 595.4-107.7 119.5-49 172.4-56.8 201.8-42.1 15.6-17.7 26.4-42.1 26.4-42.1 0 0 10.6 19.2 14 22.9 6.1 9.7 13.6 20.8 21 30.3 7.6 17 7.3 35.3-21.3 43.8-60.5 18-86.6 22.9-86.6 114.4 14.4-48.6 34.8-80.6 85.5-82.2 12.9-0.5 30.6-9.5 42.6-22.9-1.4 14.6-4.6 31-8 41.9 55.2-45.4 26.3-85.5 11.5-100.5z"/>
	</g>
</svg>